<mxfile host="app.diagrams.net" modified="2020-07-30T12:19:56.372Z" agent="5.0 (Windows NT 10.0; Win64; x64) AppleWebKit/537.36 (KHTML, like Gecko) Chrome/84.0.4147.89 Safari/537.36" etag="IRm4KMeUZZmgoTQFgVA_" version="13.1.3" type="github">
  <diagram id="h80siK9V8_ExUyt751ny" name="Page-1">
    <mxGraphModel dx="2128" dy="1648" grid="1" gridSize="10" guides="1" tooltips="1" connect="1" arrows="1" fold="1" page="1" pageScale="1" pageWidth="850" pageHeight="1100" math="0" shadow="0">
      <root>
        <mxCell id="0" />
        <mxCell id="1" parent="0" />
        <mxCell id="bKdwj68BPrSe2_P1PvU0-6" style="edgeStyle=orthogonalEdgeStyle;rounded=0;orthogonalLoop=1;jettySize=auto;html=1;exitX=0.5;exitY=1;exitDx=0;exitDy=0;entryX=0.5;entryY=0;entryDx=0;entryDy=0;" edge="1" parent="1" target="bKdwj68BPrSe2_P1PvU0-2">
          <mxGeometry relative="1" as="geometry">
            <mxPoint x="-100" y="250" as="sourcePoint" />
          </mxGeometry>
        </mxCell>
        <mxCell id="bKdwj68BPrSe2_P1PvU0-15" style="edgeStyle=orthogonalEdgeStyle;rounded=0;orthogonalLoop=1;jettySize=auto;html=1;exitX=0.5;exitY=0;exitDx=0;exitDy=0;" edge="1" parent="1" target="bKdwj68BPrSe2_P1PvU0-29">
          <mxGeometry relative="1" as="geometry">
            <mxPoint x="-100" y="150" as="targetPoint" />
            <mxPoint x="-100" y="190" as="sourcePoint" />
            <Array as="points">
              <mxPoint x="-100" y="45" />
            </Array>
          </mxGeometry>
        </mxCell>
        <mxCell id="bKdwj68BPrSe2_P1PvU0-7" style="edgeStyle=orthogonalEdgeStyle;rounded=0;orthogonalLoop=1;jettySize=auto;html=1;exitX=0.5;exitY=0;exitDx=0;exitDy=0;entryX=0.5;entryY=1;entryDx=0;entryDy=0;" edge="1" parent="1" source="bKdwj68BPrSe2_P1PvU0-2">
          <mxGeometry relative="1" as="geometry">
            <mxPoint x="-100" y="250" as="targetPoint" />
          </mxGeometry>
        </mxCell>
        <mxCell id="bKdwj68BPrSe2_P1PvU0-2" value="" style="shape=datastore;whiteSpace=wrap;html=1;" vertex="1" parent="1">
          <mxGeometry x="-130" y="340" width="60" height="60" as="geometry" />
        </mxCell>
        <mxCell id="bKdwj68BPrSe2_P1PvU0-3" value="Txnlist&amp;nbsp;" style="text;html=1;align=center;verticalAlign=middle;resizable=0;points=[];autosize=1;" vertex="1" parent="1">
          <mxGeometry x="-125" y="370" width="50" height="20" as="geometry" />
        </mxCell>
        <mxCell id="bKdwj68BPrSe2_P1PvU0-8" value="" style="ellipse;whiteSpace=wrap;html=1;aspect=fixed;" vertex="1" parent="1">
          <mxGeometry x="-140" y="315" width="25" height="25" as="geometry" />
        </mxCell>
        <mxCell id="bKdwj68BPrSe2_P1PvU0-9" value="" style="ellipse;whiteSpace=wrap;html=1;aspect=fixed;" vertex="1" parent="1">
          <mxGeometry x="-140" y="265" width="25" height="25" as="geometry" />
        </mxCell>
        <mxCell id="bKdwj68BPrSe2_P1PvU0-11" value="1" style="text;html=1;align=center;verticalAlign=middle;resizable=0;points=[];autosize=1;" vertex="1" parent="1">
          <mxGeometry x="-137.5" y="267.5" width="20" height="20" as="geometry" />
        </mxCell>
        <mxCell id="bKdwj68BPrSe2_P1PvU0-12" value="2" style="text;html=1;align=center;verticalAlign=middle;resizable=0;points=[];autosize=1;" vertex="1" parent="1">
          <mxGeometry x="-137.5" y="317.5" width="20" height="20" as="geometry" />
        </mxCell>
        <mxCell id="bKdwj68BPrSe2_P1PvU0-13" value="NN.py" style="shape=card;whiteSpace=wrap;html=1;size=20;" vertex="1" parent="1">
          <mxGeometry x="220" y="-80" width="50" height="60" as="geometry" />
        </mxCell>
        <mxCell id="bKdwj68BPrSe2_P1PvU0-21" style="edgeStyle=orthogonalEdgeStyle;rounded=0;orthogonalLoop=1;jettySize=auto;html=1;exitX=0;exitY=0;exitDx=125;exitDy=40;exitPerimeter=0;entryX=0;entryY=0;entryDx=0;entryDy=37.5;entryPerimeter=0;" edge="1" parent="1" source="bKdwj68BPrSe2_P1PvU0-17">
          <mxGeometry relative="1" as="geometry">
            <mxPoint x="30" y="230" as="targetPoint" />
          </mxGeometry>
        </mxCell>
        <mxCell id="bKdwj68BPrSe2_P1PvU0-17" value="Main" style="shape=cube;whiteSpace=wrap;html=1;boundedLbl=1;backgroundOutline=1;darkOpacity=0.05;darkOpacity2=0.1;" vertex="1" parent="1">
          <mxGeometry x="-157.5" y="190" width="125" height="60" as="geometry" />
        </mxCell>
        <mxCell id="bKdwj68BPrSe2_P1PvU0-18" value="" style="ellipse;whiteSpace=wrap;html=1;aspect=fixed;" vertex="1" parent="1">
          <mxGeometry x="-10" y="-32.5" width="25" height="25" as="geometry" />
        </mxCell>
        <mxCell id="bKdwj68BPrSe2_P1PvU0-19" value="3" style="ellipse;whiteSpace=wrap;html=1;aspect=fixed;" vertex="1" parent="1">
          <mxGeometry x="-140" y="45" width="25" height="25" as="geometry" />
        </mxCell>
        <mxCell id="bKdwj68BPrSe2_P1PvU0-22" value="" style="ellipse;whiteSpace=wrap;html=1;aspect=fixed;" vertex="1" parent="1">
          <mxGeometry x="490" y="51" width="25" height="25" as="geometry" />
        </mxCell>
        <mxCell id="bKdwj68BPrSe2_P1PvU0-23" value="" style="shape=cube;whiteSpace=wrap;html=1;boundedLbl=1;backgroundOutline=1;darkOpacity=0.05;darkOpacity2=0.1;" vertex="1" parent="1">
          <mxGeometry x="250" y="165" width="120" height="80" as="geometry" />
        </mxCell>
        <mxCell id="bKdwj68BPrSe2_P1PvU0-25" value="" style="shape=cube;whiteSpace=wrap;html=1;boundedLbl=1;backgroundOutline=1;darkOpacity=0.05;darkOpacity2=0.1;" vertex="1" parent="1">
          <mxGeometry x="260" y="175" width="120" height="80" as="geometry" />
        </mxCell>
        <mxCell id="bKdwj68BPrSe2_P1PvU0-61" style="edgeStyle=orthogonalEdgeStyle;rounded=0;orthogonalLoop=1;jettySize=auto;html=1;exitX=0;exitY=0;exitDx=120;exitDy=50;exitPerimeter=0;" edge="1" parent="1" source="bKdwj68BPrSe2_P1PvU0-24">
          <mxGeometry relative="1" as="geometry">
            <mxPoint x="570" y="245" as="targetPoint" />
          </mxGeometry>
        </mxCell>
        <mxCell id="bKdwj68BPrSe2_P1PvU0-24" value="Cart_AddItems&lt;br&gt;ToCart" style="shape=cube;whiteSpace=wrap;html=1;boundedLbl=1;backgroundOutline=1;darkOpacity=0.05;darkOpacity2=0.1;" vertex="1" parent="1">
          <mxGeometry x="280" y="195" width="120" height="80" as="geometry" />
        </mxCell>
        <mxCell id="bKdwj68BPrSe2_P1PvU0-28" value="" style="pointerEvents=1;shadow=0;dashed=0;html=1;strokeColor=none;fillColor=#434445;aspect=fixed;labelPosition=center;verticalLabelPosition=bottom;verticalAlign=top;align=center;outlineConnect=0;shape=mxgraph.vvd.cpu;" vertex="1" parent="1">
          <mxGeometry x="35" y="190" width="75" height="75" as="geometry" />
        </mxCell>
        <mxCell id="bKdwj68BPrSe2_P1PvU0-29" value="" style="pointerEvents=1;shadow=0;dashed=0;html=1;strokeColor=none;fillColor=#434445;aspect=fixed;labelPosition=center;verticalLabelPosition=bottom;verticalAlign=top;align=center;outlineConnect=0;shape=mxgraph.vvd.nsx_controller;" vertex="1" parent="1">
          <mxGeometry x="220" y="20" width="50" height="50" as="geometry" />
        </mxCell>
        <mxCell id="bKdwj68BPrSe2_P1PvU0-30" value="" style="pointerEvents=1;shadow=0;dashed=0;html=1;strokeColor=none;fillColor=#434445;aspect=fixed;labelPosition=center;verticalLabelPosition=bottom;verticalAlign=top;align=center;outlineConnect=0;shape=mxgraph.vvd.endpoint;" vertex="1" parent="1">
          <mxGeometry x="100" y="204.25" width="50" height="46.5" as="geometry" />
        </mxCell>
        <mxCell id="bKdwj68BPrSe2_P1PvU0-31" value="" style="endArrow=classic;html=1;" edge="1" parent="1" source="bKdwj68BPrSe2_P1PvU0-30">
          <mxGeometry width="50" height="50" relative="1" as="geometry">
            <mxPoint x="390" y="300" as="sourcePoint" />
            <mxPoint x="240" y="229" as="targetPoint" />
          </mxGeometry>
        </mxCell>
        <mxCell id="bKdwj68BPrSe2_P1PvU0-32" value="" style="endArrow=classic;html=1;" edge="1" parent="1">
          <mxGeometry width="50" height="50" relative="1" as="geometry">
            <mxPoint x="150" y="249" as="sourcePoint" />
            <mxPoint x="270" y="260" as="targetPoint" />
          </mxGeometry>
        </mxCell>
        <mxCell id="bKdwj68BPrSe2_P1PvU0-33" value="" style="endArrow=classic;html=1;exitX=-0.139;exitY=1.084;exitDx=0;exitDy=0;exitPerimeter=0;" edge="1" parent="1" source="bKdwj68BPrSe2_P1PvU0-34">
          <mxGeometry width="50" height="50" relative="1" as="geometry">
            <mxPoint x="190" y="219" as="sourcePoint" />
            <mxPoint x="240" y="190" as="targetPoint" />
          </mxGeometry>
        </mxCell>
        <mxCell id="bKdwj68BPrSe2_P1PvU0-34" value="Thread 1" style="text;html=1;align=center;verticalAlign=middle;resizable=0;points=[];autosize=1;rotation=-10;" vertex="1" parent="1">
          <mxGeometry x="160" y="175" width="60" height="20" as="geometry" />
        </mxCell>
        <mxCell id="bKdwj68BPrSe2_P1PvU0-35" value="Thread n" style="text;html=1;align=center;verticalAlign=middle;resizable=0;points=[];autosize=1;rotation=0;" vertex="1" parent="1">
          <mxGeometry x="170" y="250" width="60" height="20" as="geometry" />
        </mxCell>
        <mxCell id="bKdwj68BPrSe2_P1PvU0-36" value="Executor Service" style="text;html=1;align=center;verticalAlign=middle;resizable=0;points=[];autosize=1;" vertex="1" parent="1">
          <mxGeometry x="10" y="170" width="110" height="20" as="geometry" />
        </mxCell>
        <mxCell id="bKdwj68BPrSe2_P1PvU0-37" value="&lt;span&gt;TxnFlowmapAPI&lt;/span&gt;&lt;br&gt;&lt;span&gt;Thread&lt;/span&gt;" style="text;html=1;align=center;verticalAlign=middle;resizable=0;points=[];autosize=1;" vertex="1" parent="1">
          <mxGeometry x="250" y="128" width="100" height="30" as="geometry" />
        </mxCell>
        <mxCell id="bKdwj68BPrSe2_P1PvU0-38" value="BT 2" style="text;html=1;align=center;verticalAlign=middle;resizable=0;points=[];autosize=1;" vertex="1" parent="1">
          <mxGeometry x="300" y="175" width="40" height="20" as="geometry" />
        </mxCell>
        <mxCell id="bKdwj68BPrSe2_P1PvU0-39" value="BT n" style="text;html=1;align=center;verticalAlign=middle;resizable=0;points=[];autosize=1;" vertex="1" parent="1">
          <mxGeometry x="320" y="195" width="40" height="20" as="geometry" />
        </mxCell>
        <mxCell id="bKdwj68BPrSe2_P1PvU0-41" value="Model available&amp;nbsp;" style="text;html=1;align=center;verticalAlign=middle;resizable=0;points=[];autosize=1;" vertex="1" parent="1">
          <mxGeometry x="530" y="165" width="100" height="20" as="geometry" />
        </mxCell>
        <mxCell id="bKdwj68BPrSe2_P1PvU0-42" value="Prediction" style="text;html=1;align=center;verticalAlign=middle;resizable=0;points=[];autosize=1;" vertex="1" parent="1">
          <mxGeometry x="630" y="165" width="70" height="20" as="geometry" />
        </mxCell>
        <mxCell id="bKdwj68BPrSe2_P1PvU0-44" value="Model Not Available" style="text;html=1;align=center;verticalAlign=middle;resizable=0;points=[];autosize=1;" vertex="1" parent="1">
          <mxGeometry x="500" y="310" width="120" height="20" as="geometry" />
        </mxCell>
        <mxCell id="bKdwj68BPrSe2_P1PvU0-45" value="Training" style="text;html=1;align=center;verticalAlign=middle;resizable=0;points=[];autosize=1;" vertex="1" parent="1">
          <mxGeometry x="635" y="310" width="60" height="20" as="geometry" />
        </mxCell>
        <mxCell id="bKdwj68BPrSe2_P1PvU0-48" value="Jep" style="text;html=1;align=center;verticalAlign=middle;resizable=0;points=[];autosize=1;" vertex="1" parent="1">
          <mxGeometry x="230" y="92.5" width="30" height="20" as="geometry" />
        </mxCell>
        <mxCell id="bKdwj68BPrSe2_P1PvU0-69" style="edgeStyle=orthogonalEdgeStyle;rounded=0;orthogonalLoop=1;jettySize=auto;html=1;exitX=0;exitY=0.5;exitDx=0;exitDy=0;" edge="1" parent="1" source="bKdwj68BPrSe2_P1PvU0-52">
          <mxGeometry relative="1" as="geometry">
            <mxPoint x="270" y="50" as="targetPoint" />
          </mxGeometry>
        </mxCell>
        <mxCell id="bKdwj68BPrSe2_P1PvU0-52" value="" style="shape=image;html=1;verticalAlign=top;verticalLabelPosition=bottom;labelBackgroundColor=#ffffff;imageAspect=0;aspect=fixed;image=https://cdn3.iconfinder.com/data/icons/dompicon-glyph-file-format-2/256/file-jar-format-type-128.png" vertex="1" parent="1">
          <mxGeometry x="604" y="24" width="52" height="52" as="geometry" />
        </mxCell>
        <mxCell id="bKdwj68BPrSe2_P1PvU0-53" value="TxnAnalyzer.jar" style="text;html=1;align=center;verticalAlign=middle;resizable=0;points=[];autosize=1;" vertex="1" parent="1">
          <mxGeometry x="580" width="100" height="20" as="geometry" />
        </mxCell>
        <mxCell id="bKdwj68BPrSe2_P1PvU0-62" style="edgeStyle=orthogonalEdgeStyle;rounded=0;orthogonalLoop=1;jettySize=auto;html=1;exitX=0.5;exitY=0;exitDx=0;exitDy=0;" edge="1" parent="1" source="bKdwj68BPrSe2_P1PvU0-60">
          <mxGeometry relative="1" as="geometry">
            <mxPoint x="630" y="150" as="targetPoint" />
          </mxGeometry>
        </mxCell>
        <mxCell id="bKdwj68BPrSe2_P1PvU0-66" style="edgeStyle=orthogonalEdgeStyle;rounded=0;orthogonalLoop=1;jettySize=auto;html=1;exitX=0.5;exitY=1;exitDx=0;exitDy=0;" edge="1" parent="1" source="bKdwj68BPrSe2_P1PvU0-60">
          <mxGeometry relative="1" as="geometry">
            <mxPoint x="630" y="360" as="targetPoint" />
          </mxGeometry>
        </mxCell>
        <mxCell id="bKdwj68BPrSe2_P1PvU0-60" value="is Trained Model&amp;nbsp;&lt;br&gt;available for this&amp;nbsp;&lt;br&gt;Business Txn ?" style="shape=hexagon;perimeter=hexagonPerimeter2;whiteSpace=wrap;html=1;" vertex="1" parent="1">
          <mxGeometry x="570" y="204.25" width="120" height="80" as="geometry" />
        </mxCell>
        <mxCell id="bKdwj68BPrSe2_P1PvU0-64" value="runPredictFunction()" style="text;html=1;align=center;verticalAlign=middle;resizable=0;points=[];autosize=1;" vertex="1" parent="1">
          <mxGeometry x="440" y="25" width="120" height="20" as="geometry" />
        </mxCell>
        <mxCell id="bKdwj68BPrSe2_P1PvU0-68" style="edgeStyle=orthogonalEdgeStyle;rounded=0;orthogonalLoop=1;jettySize=auto;html=1;exitX=0.5;exitY=0;exitDx=0;exitDy=0;entryX=0.369;entryY=1.15;entryDx=0;entryDy=0;entryPerimeter=0;" edge="1" parent="1" source="bKdwj68BPrSe2_P1PvU0-67" target="bKdwj68BPrSe2_P1PvU0-52">
          <mxGeometry relative="1" as="geometry" />
        </mxCell>
        <mxCell id="bKdwj68BPrSe2_P1PvU0-71" style="edgeStyle=orthogonalEdgeStyle;rounded=0;orthogonalLoop=1;jettySize=auto;html=1;exitX=1;exitY=0.5;exitDx=0;exitDy=0;entryX=0.5;entryY=0;entryDx=0;entryDy=0;" edge="1" parent="1" source="bKdwj68BPrSe2_P1PvU0-67" target="bKdwj68BPrSe2_P1PvU0-70">
          <mxGeometry relative="1" as="geometry" />
        </mxCell>
        <mxCell id="bKdwj68BPrSe2_P1PvU0-67" value="Prediction sub-module" style="rounded=1;whiteSpace=wrap;html=1;" vertex="1" parent="1">
          <mxGeometry x="560" y="112.5" width="130" height="30" as="geometry" />
        </mxCell>
        <mxCell id="bKdwj68BPrSe2_P1PvU0-70" value="Clean BT Sub-Directory" style="rounded=1;whiteSpace=wrap;html=1;" vertex="1" parent="1">
          <mxGeometry x="810" y="214.25" width="120" height="60" as="geometry" />
        </mxCell>
        <mxCell id="bKdwj68BPrSe2_P1PvU0-76" style="edgeStyle=orthogonalEdgeStyle;rounded=0;orthogonalLoop=1;jettySize=auto;html=1;exitX=1;exitY=0.5;exitDx=0;exitDy=0;" edge="1" parent="1" source="bKdwj68BPrSe2_P1PvU0-73">
          <mxGeometry relative="1" as="geometry">
            <mxPoint x="870" y="280" as="targetPoint" />
          </mxGeometry>
        </mxCell>
        <mxCell id="bKdwj68BPrSe2_P1PvU0-73" value="Training sub-module" style="rounded=1;whiteSpace=wrap;html=1;" vertex="1" parent="1">
          <mxGeometry x="565" y="365" width="130" height="30" as="geometry" />
        </mxCell>
        <mxCell id="bKdwj68BPrSe2_P1PvU0-74" value="" style="ellipse;whiteSpace=wrap;html=1;aspect=fixed;" vertex="1" parent="1">
          <mxGeometry x="880" y="350" width="25" height="25" as="geometry" />
        </mxCell>
        <mxCell id="bKdwj68BPrSe2_P1PvU0-75" value="Move File to Data Folder from Predict Folder" style="text;html=1;align=center;verticalAlign=middle;resizable=0;points=[];autosize=1;" vertex="1" parent="1">
          <mxGeometry x="910" y="128" width="250" height="20" as="geometry" />
        </mxCell>
        <mxCell id="bKdwj68BPrSe2_P1PvU0-77" value="" style="ellipse;whiteSpace=wrap;html=1;aspect=fixed;" vertex="1" parent="1">
          <mxGeometry x="880" y="128" width="25" height="25" as="geometry" />
        </mxCell>
        <mxCell id="bKdwj68BPrSe2_P1PvU0-79" value="Clean Data Folder" style="text;html=1;align=center;verticalAlign=middle;resizable=0;points=[];autosize=1;" vertex="1" parent="1">
          <mxGeometry x="910" y="340" width="110" height="20" as="geometry" />
        </mxCell>
        <mxCell id="bKdwj68BPrSe2_P1PvU0-82" value="" style="endArrow=classic;html=1;entryX=0.5;entryY=1;entryDx=0;entryDy=0;entryPerimeter=0;" edge="1" parent="1" target="bKdwj68BPrSe2_P1PvU0-13">
          <mxGeometry width="50" height="50" relative="1" as="geometry">
            <mxPoint x="245" y="18" as="sourcePoint" />
            <mxPoint x="290" y="-32.5" as="targetPoint" />
          </mxGeometry>
        </mxCell>
        <mxCell id="bKdwj68BPrSe2_P1PvU0-83" value="Initialize JEP and run NN.py" style="text;html=1;align=center;verticalAlign=middle;resizable=0;points=[];autosize=1;" vertex="1" parent="1">
          <mxGeometry x="-25" y="24" width="160" height="20" as="geometry" />
        </mxCell>
        <mxCell id="bKdwj68BPrSe2_P1PvU0-85" value="Move existing model to OldModelBkpDir" style="text;html=1;align=center;verticalAlign=middle;resizable=0;points=[];autosize=1;" vertex="1" parent="1">
          <mxGeometry x="910" y="360" width="230" height="20" as="geometry" />
        </mxCell>
        <mxCell id="bKdwj68BPrSe2_P1PvU0-87" value="" style="ellipse;whiteSpace=wrap;html=1;aspect=fixed;" vertex="1" parent="1">
          <mxGeometry x="520" y="390" width="25" height="25" as="geometry" />
        </mxCell>
        <mxCell id="bKdwj68BPrSe2_P1PvU0-90" value="" style="endArrow=classic;startArrow=classic;html=1;entryX=0;entryY=0.5;entryDx=0;entryDy=0;exitX=1.124;exitY=0.33;exitDx=0;exitDy=0;exitPerimeter=0;" edge="1" parent="1" source="bKdwj68BPrSe2_P1PvU0-3" target="bKdwj68BPrSe2_P1PvU0-73">
          <mxGeometry width="50" height="50" relative="1" as="geometry">
            <mxPoint x="250" y="400" as="sourcePoint" />
            <mxPoint x="300" y="350" as="targetPoint" />
          </mxGeometry>
        </mxCell>
        <mxCell id="bKdwj68BPrSe2_P1PvU0-92" value="" style="ellipse;whiteSpace=wrap;html=1;aspect=fixed;" vertex="1" parent="1">
          <mxGeometry x="-57.5" y="390" width="25" height="25" as="geometry" />
        </mxCell>
      </root>
    </mxGraphModel>
  </diagram>
</mxfile>
